<svg width="128" height="128" viewBox="0 0 128 128" fill="none" xmlns="http://www.w3.org/2000/svg">
<path d="M106.009 63.5733C109.653 70.5955 112 78.56 112.711 87.0578C112.676 87.3955 112.604 88.2489 112.444 89.4933C110.88 79.5555 105.636 71.04 98.3289 65.76C99.5911 64.6222 100.782 63.3778 101.867 62.0444C103.182 62.7022 104.551 63.2355 106.009 63.5733Z" fill="white"/>
<path d="M23.2356 65.2978C23.2178 64.8533 23.2178 64.4089 23.2178 63.9466C23.2178 63.4844 23.2356 63.04 23.2356 62.5955C23.2533 62.1689 23.2711 61.7422 23.3067 61.3333C23.4844 58.6844 23.9111 56.1244 24.5867 53.6711H24.6044C25.7778 53.5822 26.9333 53.5289 28.1244 53.5289C29.0133 53.5289 29.9022 53.5467 30.7911 53.6C30.7733 53.5822 30.7733 53.5644 30.7556 53.5466C30.7733 53.5466 30.7733 53.5466 30.7911 53.5466C30.8089 53.5466 30.8089 53.5466 30.8089 53.5466C30.8267 53.5644 30.8267 53.5822 30.8444 53.6C30.8267 53.6 30.8267 53.6 30.8089 53.6C35.7511 61.2978 39.04 70.4 40.1244 80.2667C40.3733 82.5778 40.4978 84.9067 40.4978 87.2889C40.4978 89.3511 40.3911 91.3955 40.1955 93.4044C40.1244 94.0444 40.0533 94.7022 39.9822 95.3422C39.9822 95.36 39.9644 95.3955 39.9644 95.4133C39.9644 95.4133 39.9467 95.4133 39.9467 95.3955C39.9467 95.3778 39.9644 95.3422 39.9644 95.3244C30.9333 89.8489 24.5333 79.6444 23.3956 67.6978C23.36 67.3066 23.3422 66.9155 23.3067 66.5244C23.3067 66.4889 23.3067 66.4711 23.3067 66.4533C23.2711 66.08 23.2533 65.6889 23.2356 65.2978Z" fill="white"/>
<path d="M52.1956 59.3066C52.2311 59.6089 52.2667 59.8933 52.32 60.1955C52.2667 59.8933 52.2311 59.6089 52.1956 59.3066Z" fill="white"/>
<path d="M104.818 57.7067C108 52.4267 109.938 46.1511 110.187 39.3955H110.204C109.973 46.1689 108.036 52.48 104.853 57.7778C104.836 57.7422 104.836 57.7244 104.818 57.7067Z" fill="white"/>
<path d="M101.244 109.209C101.227 109.244 101.227 109.279 101.209 109.315C101.227 109.279 101.227 109.244 101.244 109.209Z" fill="white"/>
<path d="M52.32 60.1955C45.8311 56.3555 38.5422 54.0089 30.7911 53.5644C30.7911 53.5644 30.7911 53.5644 30.7733 53.5644C30.2578 52.7289 29.7067 51.9111 29.1022 51.1111C30.7022 51.3778 32.3378 51.52 34.0089 51.52C38.88 51.52 43.5022 50.2933 47.6267 48.1244C47.6267 48.1422 47.6445 48.16 47.6445 48.1778C47.6445 48.1955 47.6267 48.1955 47.6267 48.1955C48.6045 51.9289 50.1333 55.3955 52.1067 58.5066C52.1245 58.7733 52.16 59.0578 52.1956 59.3244C52.2311 59.6089 52.2667 59.8933 52.32 60.1955Z" fill="white"/>
<path d="M25.5822 50.56C24.64 51.5733 23.7333 52.6044 22.8622 53.7067C22.8089 53.7067 22.7911 53.7244 22.7378 53.7244C18.7378 54.1867 14.88 55.1644 11.2 56.5867C13.5645 53.2444 16.2667 50.2222 19.2178 47.5378C21.2622 48.7289 23.4133 49.6711 25.6711 50.3466C25.6356 50.4178 25.6178 50.4889 25.5822 50.56Z" fill="white"/>
<path d="M52.1067 58.4177C50.1511 55.3244 48.64 51.8755 47.6444 48.16C48.8356 47.5555 49.9733 46.8444 51.0755 46.0622C51.3955 45.8311 51.7333 45.6 52.0533 45.3511C51.8578 47.3955 51.7511 49.4755 51.7511 51.5733C51.7333 53.9022 51.8578 56.1777 52.1067 58.4177Z" fill="white"/>
<path d="M39.9289 95.4133C30.88 89.92 24.48 79.6978 23.3778 67.7155C24.5156 79.6622 30.9156 89.8667 39.9467 95.3422C39.9467 95.3778 39.9289 95.3956 39.9289 95.4133Z" fill="white"/>
<path d="M111.627 38.6133C111.698 38.6311 111.787 38.6311 111.858 38.6311C111.289 38.8444 110.72 39.0933 110.187 39.3955C110.187 39.36 110.187 39.3244 110.187 39.2889C110.649 39.0222 111.129 38.7911 111.627 38.6133Z" fill="white"/>
<path d="M0 92.3555C0 78.8622 4.14222 66.4533 11.0756 56.6222C11.1289 56.6044 11.1644 56.5867 11.2178 56.5689C11.1644 56.6222 11.1289 56.6933 11.0756 56.7467C14.7556 55.3067 18.6133 54.3289 22.6133 53.8489C14.4356 64.0711 9.45778 77.5467 9.45778 92.3378C9.45778 104.551 12.8533 115.893 18.6489 125.227H9.88445L9.36889 125.547C3.46667 116.16 0 104.711 0 92.3555Z" fill="white"/>
<path d="M76.1956 37.1733C78.8267 39.7333 81.0667 42.7733 82.8444 46.1689C76.4444 40.8 68.9067 37.0311 60.6756 35.4311C60.8533 35.1466 61.0133 34.8622 61.1556 34.5778C61.1733 34.5778 61.1733 34.5778 61.1911 34.5778C66.3289 34.5778 71.2889 35.4133 76 36.9955C76.0711 37.0489 76.1244 37.12 76.1956 37.1733Z" fill="white"/>
<path d="M103.467 109.369C102.72 109.369 101.973 109.351 101.244 109.316C101.262 109.262 101.262 109.227 101.28 109.173C102.009 109.209 102.738 109.227 103.467 109.227C104.889 109.227 106.276 109.156 107.68 109.031C107.662 109.084 107.644 109.12 107.627 109.173C106.258 109.298 104.871 109.369 103.467 109.369Z" fill="white"/>
<path d="M22.6133 53.8667C18.6133 54.3467 14.7556 55.3244 11.0756 56.7644C11.1289 56.7111 11.1645 56.64 11.2178 56.5866C14.88 55.1644 18.7378 54.1866 22.7556 53.7244C22.7022 53.76 22.6489 53.8133 22.6133 53.8667Z" fill="white"/>
<path d="M23.2355 65.2978C23.2533 65.6889 23.2711 66.08 23.2889 66.4711C23.2533 66.08 23.2533 65.6889 23.2355 65.2978Z" fill="white"/>
<path d="M64.8178 30.0266C64.8711 30.0089 64.8889 29.9733 64.9422 29.9555C69.1378 31.4489 72.96 33.9022 76.1956 37.0666C76.1244 37.0489 76.0533 37.0133 76 36.9955C72.7644 33.8844 68.9778 31.4844 64.8178 30.0266Z" fill="white"/>
<path d="M64.9422 29.9555C64.8889 29.9733 64.8711 30.0089 64.8178 30.0267C68.9778 31.4844 72.7644 33.8844 76 36.9777C71.3067 35.4133 66.3289 34.56 61.1911 34.56C61.1733 34.56 61.1733 34.56 61.1555 34.56C61.7955 33.4222 62.3822 32.2311 62.8978 31.0044C63.5555 30.6489 64.1955 30.2755 64.8178 29.8844C64.8711 29.92 64.8889 29.9378 64.9422 29.9555Z" fill="white"/>
<path d="M106.916 29.6711C106.862 29.1555 106.844 28.6933 106.88 28.2489C106.951 27.1466 107.342 26.3822 108.498 26.3822H108.516C108.658 26.8266 108.782 27.2711 108.907 27.7155C108.907 27.7333 108.924 27.7333 108.924 27.7689C109.653 30.9511 110.044 34.3289 110.044 37.8133C110.044 37.9022 110.044 37.9911 110.027 38.08C108.462 37.2267 107.324 35.3244 107.182 33.3511C107.164 33.2089 107.164 33.0667 107.164 32.9244C107.164 32.6044 107.147 32.2667 107.111 31.9289C107.058 31.2 106.969 30.4178 106.916 29.6711Z" fill="white"/>
<path d="M24.5867 53.5466C24.5689 53.6 24.5689 53.6355 24.5511 53.6889C23.9467 53.7422 23.3244 53.7955 22.7378 53.8666C22.7911 53.8133 22.8089 53.76 22.8622 53.7244C23.4311 53.6355 24.0178 53.5822 24.5867 53.5466Z" fill="white"/>
<path d="M112.747 31.9111C113.191 32.1244 113.938 32.5511 114.542 33.2978C114.684 33.4755 112.16 36.3022 112.516 34.9511C112.764 33.9911 112.569 32.7467 112.444 32.1422C112.427 31.9644 112.587 31.84 112.747 31.9111Z" fill="white"/>
<path d="M111.627 38.6133C111.129 38.7911 110.649 39.0222 110.204 39.2889C110.222 38.9689 110.24 38.6311 110.222 38.3111C110.222 38.2933 110.222 38.2578 110.222 38.24C110.276 38.2755 110.347 38.2933 110.4 38.3111C110.489 38.3644 110.596 38.4 110.684 38.4178C111.004 38.5244 111.307 38.5778 111.627 38.6133Z" fill="white"/>
<path d="M23.3778 67.7155C23.3422 67.3244 23.3067 66.9333 23.2889 66.5422C23.3245 66.9333 23.3422 67.3244 23.3778 67.7155Z" fill="white"/>
<path d="M24.6225 53.6178C24.6046 53.6357 24.6046 53.6536 24.6046 53.6715H24.5867C24.5867 53.6536 24.6046 53.6357 24.6046 53.6178C24.6046 53.6178 24.6046 53.6178 24.6225 53.6178Z" fill="white"/>
<path d="M90.6489 44.9778C86.3289 41.6355 81.5467 39.0044 76.3911 37.2444C76.32 37.1733 76.2667 37.12 76.1956 37.0489C72.96 33.8844 69.1378 31.4311 64.9422 29.9378C73.7067 24.2844 79.84 14.1333 80.8178 2.3111C91.6978 3.2711 101.049 10.3289 106.133 20.4089C97.1911 22.5067 90.4711 31.3778 90.4711 41.9911C90.4711 43.0222 90.5244 44 90.6489 44.9778Z" fill="white"/>
<path d="M106.009 63.5733C105.298 62.2044 104.533 60.8533 103.716 59.5733C104.107 59.0044 104.48 58.4178 104.818 57.8311C106.116 60.6044 108.213 62.8266 110.773 64.0711C110.596 64.0889 110.418 64.0889 110.222 64.0889C108.782 64.0889 107.36 63.9111 106.009 63.5733Z" fill="white"/>
<path d="M107.111 31.9467C107.058 31.1822 106.969 30.4 106.916 29.6711C106.969 30.4178 107.058 31.2 107.111 31.9467Z" fill="white"/>
<path d="M40.4622 87.2889C40.4622 84.9066 40.3378 82.5778 40.0889 80.2666C39.04 70.4 35.7511 61.2978 30.8089 53.6C38.56 54.0444 45.8489 56.3911 52.32 60.2311C52.96 64.9778 54.1156 69.5289 55.7156 73.8133C51.5022 79.8578 48.9778 87.4489 48.9778 95.6978C48.9778 96.8711 49.0311 98.0089 49.1378 99.1289C45.8667 98.4355 42.7733 97.1733 39.9467 95.4489C39.9644 95.3955 39.9644 95.36 39.9644 95.3066C40.0533 94.6666 40.1244 94.0089 40.1778 93.3689C40.3733 91.3955 40.4622 89.3689 40.4622 87.2889Z" fill="white"/>
<path d="M80.96 60.0178C83.0222 60.0178 85.0311 60.2311 86.9867 60.6578C87.0933 61.7955 87.1467 62.9333 87.1467 64.0889C87.1467 67.0044 86.8444 69.8311 86.24 72.5333C83.68 73.2622 81.0133 73.6533 78.2578 73.6533C73.2978 73.6533 68.5867 72.3911 64.3911 70.1333C64.3911 70.1333 64.3911 70.1333 64.3733 70.1156C63.4844 69.1378 62.56 68.1956 61.6 67.2889C66.9867 62.72 73.7067 60.0178 80.96 60.0178Z" fill="white"/>
<path d="M39.9289 95.4133C38.4533 106.916 33.9555 117.316 27.3422 125.6L26.8622 125.227H18.6489C12.8533 115.893 9.45776 104.551 9.45776 92.3378C9.45776 77.5466 14.4355 64.0533 22.6133 53.8489C22.6667 53.8489 22.6844 53.8311 22.7378 53.8311C23.3422 53.76 23.9467 53.7067 24.5511 53.6533C23.8933 56.1067 23.4667 58.6667 23.2889 61.3155C23.2533 61.7422 23.2355 62.1511 23.2178 62.5778C23.2 63.0222 23.2 63.4666 23.2 63.9289C23.2 64.3911 23.2178 64.8178 23.2178 65.28C23.2355 65.6711 23.2355 66.0622 23.2711 66.4533C23.2711 66.4711 23.2711 66.5066 23.2711 66.5244C23.2889 66.9155 23.3244 67.2889 23.36 67.6978C24.48 79.6978 30.88 89.9378 39.9289 95.4133Z" fill="white"/>
<path d="M101.244 109.316C101.973 109.351 102.72 109.369 103.467 109.369C104.853 109.369 106.258 109.298 107.627 109.173C105.493 114.916 102.471 120.729 98.24 125.227L94.3289 125.191C97.2978 120.373 99.6444 115.022 101.209 109.298C101.227 109.316 101.227 109.316 101.244 109.316Z" fill="white"/>
<path d="M54.1511 61.3866C56.0889 63.8933 58.3645 66.0978 60.8889 67.9111C58.9511 69.6533 57.2089 71.6444 55.7156 73.8311C54.1156 69.5466 52.96 64.9778 52.32 60.2489C52.9422 60.6222 53.5644 60.9955 54.1511 61.3866Z" fill="white"/>
<path d="M30.8089 53.6178C35.7511 61.3155 39.04 70.4178 40.0889 80.2844C39.0222 70.4178 35.7156 61.3155 30.7733 53.6178C30.7911 53.6178 30.8089 53.6178 30.8089 53.6178Z" fill="white"/>
<path d="M52.1067 58.4178C52.1244 58.4355 52.1244 58.4711 52.1244 58.4889C50.1511 55.3955 48.6222 51.9111 47.6444 48.1778C47.6444 48.1778 47.6622 48.1778 47.6622 48.16C48.6222 51.8755 50.1333 55.3244 52.1067 58.4178Z" fill="white"/>
<path d="M76.1956 37.1733C76.2667 37.1911 76.32 37.2266 76.3911 37.2444C79.0045 39.8222 81.2267 42.8622 82.9511 46.2756C82.9156 46.24 82.88 46.2044 82.8445 46.1689C81.0845 42.7733 78.8445 39.7511 76.1956 37.1733Z" fill="white"/>
<path d="M110.204 39.2711C110.204 39.3064 110.204 39.3416 110.204 39.3769H110.187C110.204 39.3593 110.204 39.3064 110.204 39.2711Z" fill="white"/>
<path d="M101.28 109.173C101.262 109.227 101.262 109.262 101.244 109.316C101.227 109.316 101.227 109.316 101.209 109.316C101.227 109.28 101.227 109.244 101.244 109.209H101.227C101.227 109.191 101.244 109.191 101.244 109.173C101.244 109.173 101.262 109.173 101.28 109.173Z" fill="white"/>
<path d="M24.6222 53.6178C25.7778 53.5289 26.9333 53.4755 28.1244 53.4755C29.0133 53.4755 29.8844 53.4933 30.7556 53.5467C30.7733 53.5644 30.7733 53.5822 30.7911 53.6C29.9022 53.5467 29.0311 53.5289 28.1244 53.5289C26.9333 53.5289 25.7778 53.5822 24.6044 53.6711C24.5867 53.6533 24.6044 53.6355 24.6222 53.6178Z" fill="white"/>
<path d="M94.3111 125.244L78.3644 125.102C79.3422 120.658 79.8756 116.036 79.8756 111.253C79.8756 108.338 79.68 105.476 79.3067 102.684C85.9022 106.596 93.3333 108.942 101.244 109.333C99.68 115.076 97.3333 120.391 94.3467 125.227H94.3644C94.3111 125.209 94.3111 125.227 94.3111 125.244Z" fill="white"/>
<path d="M103.716 59.5556C103.129 60.4089 102.524 61.2267 101.867 62.0089C99.4844 60.7644 97.3511 59.0044 95.5911 56.8356C92.96 53.6178 91.1822 49.5111 90.6311 44.96C95.7511 48.9244 100.178 53.8667 103.716 59.5556Z" fill="white"/>
<path d="M93.1911 57.92C90.2755 53.5644 86.8267 49.6889 82.9511 46.4C82.9155 46.3289 82.88 46.2578 82.8444 46.1689C82.88 46.2044 82.9155 46.24 82.9511 46.2755C81.2267 42.8622 79.0044 39.8222 76.3911 37.2444C81.5467 39.0044 86.3289 41.6178 90.6489 44.9778C91.2 49.5289 92.96 53.6178 95.6089 56.8533L93.1911 57.92Z" fill="white"/>
<path d="M61.6178 67.2889C62.56 68.1955 63.5022 69.1378 64.3911 70.1155C63.1822 69.4755 62.0089 68.7289 60.8889 67.9289C61.12 67.7155 61.3689 67.5022 61.6178 67.2889Z" fill="white"/>
<path d="M76 36.9955C76.0711 37.0133 76.1422 37.0489 76.1956 37.0667C76.2667 37.1378 76.32 37.1911 76.3911 37.2622C76.32 37.2444 76.2667 37.2089 76.1956 37.1911C76.1244 37.12 76.0711 37.0489 76 36.9955Z" fill="white"/>
<path d="M107.164 33.3689C107.307 35.3422 108.462 37.2444 110.009 38.0978C110.08 38.1511 110.151 38.1689 110.222 38.2044C110.222 38.2222 110.222 38.2578 110.222 38.2755C108.533 37.4755 107.289 35.4666 107.164 33.3689Z" fill="white"/>
<path d="M52.1245 58.5067C52.7467 59.52 53.4222 60.48 54.1689 61.4044C53.5645 61.0133 52.96 60.6222 52.3378 60.2667C52.3378 60.2489 52.32 60.2311 52.32 60.2133H52.3378C52.2845 59.9111 52.2489 59.6267 52.2133 59.3244C52.16 59.04 52.1422 58.7733 52.1245 58.5067Z" fill="white"/>
<path d="M28.1067 53.4933C26.9333 53.4933 25.76 53.5467 24.6044 53.6355C24.8711 52.5867 25.2089 51.5733 25.5822 50.5778C25.6533 50.5244 25.7067 50.4533 25.76 50.4C26.8622 50.72 27.9644 50.9867 29.1022 51.2C29.6711 51.9822 30.2222 52.7822 30.7378 53.6C29.8667 53.5111 28.9956 53.4933 28.1067 53.4933Z" fill="white"/>
<path d="M103.716 59.5555C100.178 53.8667 95.7511 48.9244 90.6488 44.9778C90.5244 44 90.4711 43.0222 90.4711 42.0089C90.4711 31.3778 97.1733 22.5244 106.133 20.4267C107.076 22.2933 107.876 24.2667 108.498 26.3289C107.324 26.3289 106.933 27.1289 106.88 28.2667C106.844 28.6933 106.862 29.1733 106.916 29.6889C106.969 30.4178 107.058 31.2 107.111 31.9644C107.147 32.3022 107.164 32.64 107.164 32.96C107.164 33.1022 107.164 33.2267 107.182 33.3867C107.307 35.4844 108.569 37.4933 110.24 38.3111C110.258 38.6311 110.24 38.9867 110.222 39.2889C110.222 39.3244 110.222 39.36 110.204 39.3955C106.222 41.6533 103.484 46.2578 103.484 51.5911C103.484 53.8489 103.964 55.9644 104.836 57.8311C104.48 58.4 104.107 59.0044 103.716 59.5555Z" fill="white"/>
<path d="M103.716 59.5555C104.533 60.8533 105.28 62.1867 106.009 63.5555C104.569 63.2178 103.182 62.6844 101.884 62.0089C102.524 61.2267 103.129 60.4089 103.716 59.5555Z" fill="white"/>
<path d="M93.1911 57.92C94.6845 60.1422 96.0356 62.5066 97.2445 64.9777C94.1333 62.9155 90.6667 61.4222 86.9867 60.64C86.56 55.4844 85.1378 50.6667 82.9511 46.4C86.8267 49.6889 90.2756 53.5644 93.1911 57.92Z" fill="white"/>
<path d="M104.818 57.8133C103.964 55.9289 103.467 53.8133 103.467 51.5733C103.467 46.24 106.204 41.6355 110.187 39.3778C109.938 46.1333 108 52.4267 104.818 57.6889C104.836 57.7067 104.836 57.7244 104.853 57.7422C104.836 57.7778 104.836 57.7956 104.818 57.8133Z" fill="white"/>
<path d="M48.9955 95.7333C48.9955 87.4844 51.5022 79.8933 55.7333 73.8489C58.9155 82.3645 63.8755 89.8489 70.08 95.7155C65.6355 98.3289 60.5689 99.8044 55.2 99.8044C53.1378 99.8044 51.1111 99.5911 49.1555 99.1644C49.0311 98.0267 48.9955 96.8889 48.9955 95.7333Z" fill="white"/>
<path d="M22.7378 53.8489C22.6844 53.8489 22.6667 53.8667 22.6133 53.8667C22.6667 53.8133 22.7022 53.76 22.7378 53.7244C22.7911 53.7244 22.8089 53.7066 22.8622 53.7066C22.8089 53.7422 22.7733 53.7955 22.7378 53.8489Z" fill="white"/>
<path d="M104.853 57.76C108.036 52.4622 109.973 46.1689 110.204 39.3778C110.738 39.0755 111.289 38.8267 111.876 38.6133C111.804 38.6133 111.716 38.6133 111.644 38.5955C111.716 38.5422 111.804 38.5244 111.876 38.4889H111.893C111.911 38.4889 111.929 38.4711 111.964 38.4711C112 38.4533 112.036 38.4355 112.107 38.4178C112.124 38.4178 112.124 38.4 112.124 38.4C113.262 38.0089 114.436 37.8133 115.68 37.8133C122.418 37.8133 127.893 43.9289 127.893 51.4489C127.893 51.5911 127.893 51.7156 127.876 51.84C124.693 58.8622 118.258 63.7156 110.773 63.9289C108.231 62.72 106.133 60.5156 104.853 57.76Z" fill="white"/>
<path d="M86.2578 72.5333C86.8622 69.8311 87.1644 67.0044 87.1644 64.0889C87.1644 62.9155 87.1111 61.7778 87.0044 60.6578C90.6844 61.44 94.1511 62.9333 97.2622 64.9955C97.4578 65.3866 97.6533 65.7955 97.8311 66.2044C94.4356 69.12 90.5067 71.3067 86.2578 72.5333Z" fill="white"/>
<path d="M97.2444 64.9778C97.6178 65.2266 97.9733 65.4755 98.3289 65.7422C98.1511 65.9022 97.9733 66.0444 97.8133 66.1867C97.6356 65.7778 97.44 65.3867 97.2444 64.9778Z" fill="white"/>
<path d="M97.8133 66.1867C101.44 74.08 103.467 83.0044 103.467 92.48C103.467 98.2933 102.702 103.893 101.28 109.173C101.262 109.173 101.262 109.173 101.244 109.173C101.244 109.191 101.227 109.191 101.227 109.209C93.3155 108.836 85.8667 106.471 79.2711 102.56C79.2711 102.596 79.2889 102.631 79.2889 102.667C79.2889 102.649 79.2711 102.649 79.2711 102.649C78.72 98.5244 77.7778 94.5244 76.4622 90.72C81.2267 85.9733 84.6933 79.6622 86.2578 72.5156C90.5067 71.3067 94.4356 69.12 97.8133 66.1867Z" fill="white"/>
<path d="M114.542 33.2978C113.938 32.5333 113.191 32.1244 112.747 31.9111C112.587 31.84 112.427 31.9644 112.444 32.1422C112.569 32.7467 112.764 33.9911 112.516 34.9511C112.16 36.3022 114.684 33.4755 114.542 33.2978ZM116.693 32.7644C116.693 35.1111 112.658 37.8844 111.662 38.4178C111.644 38.4178 111.644 38.4355 111.644 38.4355C111.591 38.4533 111.573 38.4711 111.52 38.4889C111.484 38.5067 111.467 38.5067 111.449 38.5067H111.431C111.182 38.5067 110.933 38.4711 110.684 38.4C110.596 38.3644 110.489 38.3289 110.4 38.2933C110.347 38.2755 110.276 38.24 110.222 38.2222C110.24 38.1511 110.24 38.0978 110.24 38.0267C110.24 34.4711 109.778 31.0222 108.907 27.7867C108.907 27.7689 108.889 27.7511 108.889 27.7333C108.764 27.2178 108.64 26.7022 108.498 26.2044C108.782 26.2044 116.693 30.1689 116.693 32.7644Z" fill="white"/>
<path d="M54.1511 61.3867C56.8 63.1111 59.2889 65.0844 61.6 67.2889C61.3689 67.4844 61.12 67.7155 60.8711 67.9289C58.3822 66.0978 56.1067 63.9111 54.1511 61.3867Z" fill="white"/>
<path d="M52.1245 58.5067C52.1422 58.7733 52.1778 59.0578 52.1956 59.3244C52.16 59.04 52.1245 58.7555 52.1245 58.5067C52.1067 58.5067 52.1067 58.4889 52.1245 58.5067Z" fill="white"/>
<path d="M94.3111 125.209C97.2978 120.391 99.6444 115.058 101.209 109.316C99.6444 115.04 97.2978 120.373 94.3289 125.209H94.3111Z" fill="white"/>
<path d="M101.867 62.0266C100.782 63.36 99.5911 64.6044 98.3289 65.7422C97.9733 65.4755 97.6178 65.2266 97.2444 64.9778C96.0533 62.5067 94.6844 60.1422 93.1911 57.92L95.6089 56.8533C97.3689 59.0044 99.4844 60.7644 101.867 62.0266Z" fill="white"/>
<path d="M108.907 27.7689C109.778 31.0044 110.24 34.4533 110.24 38.0089C110.24 38.08 110.24 38.1333 110.222 38.2044C110.151 38.1689 110.08 38.1333 110.009 38.0978C110.027 38.0089 110.027 37.92 110.027 37.8311C110.027 34.3289 109.618 30.9511 108.907 27.7689Z" fill="white"/>
<path d="M25.5822 50.56C25.2267 51.5555 24.8889 52.5866 24.6044 53.6178C24.5867 53.6178 24.5867 53.6178 24.5867 53.6178C24.5867 53.6355 24.5689 53.6533 24.5689 53.6711C24.5511 53.6711 24.5511 53.6711 24.5511 53.6711C24.5689 53.6178 24.5689 53.5822 24.5867 53.5289C24.0178 53.5822 23.4133 53.6178 22.8622 53.6889C23.7333 52.6044 24.64 51.5555 25.5822 50.56Z" fill="white"/>
<path d="M101.209 109.316C93.3155 108.924 85.8844 106.578 79.2711 102.667C79.2711 102.631 79.2533 102.596 79.2533 102.56C85.8666 106.471 93.3155 108.836 101.209 109.209C101.227 109.244 101.227 109.28 101.209 109.316Z" fill="white"/>
<path d="M82.9511 46.4C85.1378 50.6844 86.56 55.5022 86.9867 60.64C85.0311 60.2133 83.0222 60 80.96 60C73.6889 60 66.9867 62.7022 61.6178 67.2711C59.3067 65.0844 56.8 63.0933 54.1689 61.3689C53.44 60.4444 52.7467 59.4844 52.1244 58.4711C52.1067 58.4711 52.1067 58.4533 52.1067 58.4533C52.1067 58.4356 52.1067 58.4 52.0889 58.3822C51.8578 56.1422 51.7333 53.8489 51.7333 51.5378C51.7333 49.44 51.84 47.3422 52.0356 45.3155C55.4489 42.72 58.3822 39.3778 60.6756 35.52C68.9422 37.1733 76.5333 40.9778 82.9511 46.4Z" fill="white"/>
<path d="M78.2578 73.6533C81.0133 73.6533 83.6978 73.2622 86.24 72.5333C84.6933 79.68 81.2089 85.9911 76.4444 90.7378C73.7778 82.9155 69.6355 75.9111 64.3733 70.1333C68.6044 72.3911 73.2978 73.6533 78.2578 73.6533Z" fill="white"/>
<path d="M64.3911 70.1333C69.6355 75.9111 73.7778 82.9155 76.4622 90.7378C74.5244 92.6755 72.3911 94.3289 70.0622 95.6978C63.8578 89.8311 58.8978 82.3644 55.7156 73.8311C57.2089 71.6444 58.9511 69.6533 60.8889 67.9111C62.0089 68.7467 63.1822 69.4755 64.3911 70.1333Z" fill="white"/>
<path d="M98.3289 65.7422C105.636 71.0222 110.88 79.5555 112.444 89.4755C111.947 93.3867 110.649 101.191 107.68 109.173C107.662 109.173 107.644 109.173 107.627 109.173C107.644 109.12 107.68 109.084 107.68 109.031C106.293 109.156 104.889 109.227 103.467 109.227C102.738 109.227 101.991 109.209 101.28 109.173C102.702 103.893 103.467 98.2933 103.467 92.48C103.467 83.0044 101.422 74.0622 97.8133 66.1866C97.9911 66.0444 98.1689 65.9022 98.3289 65.7422Z" fill="white"/>
</svg>
