<svg width="32" height="32" viewBox="0 0 32 32" fill="none" xmlns="http://www.w3.org/2000/svg">
<path fill-rule="evenodd" clip-rule="evenodd" d="M16 32C7.16344 32 0 24.8366 0 16C0 7.16344 7.16344 0 16 0C24.8366 0 32 7.16344 32 16C32 24.8366 24.8366 32 16 32ZM24.0988 14.2225L15.0124 14.2227C14.5761 14.2227 14.2224 14.5763 14.2223 15.0126L14.2213 16.9879C14.2212 17.4242 14.5749 17.7781 15.0113 17.7782C15.0113 17.7782 15.0114 17.7782 15.0115 17.7782L20.5432 17.7779C20.9796 17.7779 21.3334 18.1317 21.3334 18.568V18.568L21.3334 18.7655V18.9631C21.3334 20.2722 20.2721 21.3334 18.963 21.3334L11.4563 21.3334C11.02 21.3334 10.6663 20.9797 10.6663 20.5434L10.666 13.0374C10.6659 11.7283 11.7271 10.667 13.0363 10.667H13.0363L24.0966 10.6666C24.5327 10.6666 24.8864 10.3131 24.8867 9.87694L24.8889 7.90172C24.8892 7.46535 24.5356 7.11138 24.0993 7.11111C24.0991 7.11111 24.0989 7.11111 24.0988 7.11111L13.0371 7.11163C9.76434 7.11163 7.11122 9.76473 7.11121 13.0375L7.11111 24.0988C7.11111 24.5351 7.46485 24.8889 7.90122 24.8889L19.5557 24.8889C22.5011 24.8889 24.8889 22.5011 24.8889 19.5557V15.0126C24.8889 14.5763 24.5351 14.2225 24.0988 14.2225V14.2225Z"/>
</svg>
